<?xml version="1.0" encoding="utf-8"?>
<svg xmlns="http://www.w3.org/2000/svg" width="164.108" height="41.28" viewBox="0 0 164.108 41.28">
  <g id="Group_834" data-name="Group 834" transform="translate(-26.668 -19.086)">
    <g id="Group_503" data-name="Group 503" transform="translate(26.668 31.391)">
      <g id="Group_502" data-name="Group 502" transform="translate(0 0)">
        <path id="Path_313" data-name="Path 313" d="M121.064,48.036l-2.5,11.7c-.49,2.3-.624,4.569-1.028,6.873h-.088c-.356-2.3-.58-4.569-.981-6.873l-2.141-11.7H96.8V65.969a8.052,8.052,0,0,1-.223,2.49,1.914,1.914,0,0,1-2.1,1.367,1.969,1.969,0,0,1-2.1-1.4,7.878,7.878,0,0,1-.222-2.492V48.036h-9.1V66.649a14.288,14.288,0,0,0,.32,3.139H77.741V48.036H68.635V72.21a4.3,4.3,0,0,0,4.3,4.31H84.568V72.762c1.471,2.323,4.346,4.249,9.907,4.249,10.534,0,11.426-6.918,11.426-10.363V52.193l6.593,24.327h9.283l9.15-28.484Z" transform="translate(-50.798 -48.036)"/>
        <path id="Path_314" data-name="Path 314" d="M26.668,52.346V76.52h9.106V65.592h6.514V58.874H35.775V54.755h6.961V48.036l-11.752,0A4.318,4.318,0,0,0,26.668,52.346Z" transform="translate(-26.668 -48.036)"/>
        <g id="Group_500" data-name="Group 500" transform="translate(73.882)">
          <path id="Path_315" data-name="Path 315" d="M235.339,69.788V48.036h-9.1v26.11l-6.547-26.11H208.576L200.5,76.52h9.373l.76-3.662h6.11l.674,3.662h24.751V69.788ZM211.833,66.8l1.251-6.608c.357-1.772.578-3.586.849-5.361h.087c.221,1.775.4,3.588.671,5.361l.983,6.608Z" transform="translate(-200.498 -48.036)"/>
        </g>
        <g id="Group_501" data-name="Group 501" transform="translate(110.231 0.029)">
          <path id="Path_316" data-name="Path 316" d="M288.135,48.1a2.049,2.049,0,1,1-.01,4.1,2.049,2.049,0,1,1,0-4.1Zm-.023.413a1.631,1.631,0,0,0,.023,3.26,1.564,1.564,0,0,0,1.557-1.618,1.585,1.585,0,0,0-1.568-1.641ZM287.8,51.2h-.472V49.162a6.147,6.147,0,0,1,.787-.061,1.081,1.081,0,0,1,.7.162.516.516,0,0,1,.212.435.531.531,0,0,1-.426.488v.025c.2.062.3.224.364.5a1.784,1.784,0,0,0,.148.5h-.5a1.744,1.744,0,0,1-.162-.5c-.033-.213-.162-.312-.422-.312H287.8Zm.015-1.145h.223c.262,0,.474-.086.474-.3,0-.186-.134-.31-.437-.31a1.088,1.088,0,0,0-.261.025Z" transform="translate(-286.02 -48.105)"/>
        </g>
      </g>
    </g>
    <g id="Group_507" data-name="Group 507" transform="translate(145.456 19.086)">
      <g id="Group_506" data-name="Group 506">
        <g id="Group_505" data-name="Group 505">
          <g id="Group_504" data-name="Group 504">
            <path id="Path_317" data-name="Path 317" d="M351.472,27.3a9.187,9.187,0,0,0-7.805-3.317c-.428.017-.868.036-1.335.066a20.037,20.037,0,0,0-13.217-4.966A20.416,20.416,0,0,0,315.06,54.122a27.639,27.639,0,0,1-8.909,5.659A30.7,30.7,0,0,0,317.28,56a20.007,20.007,0,0,0,11.834,3.86,20.414,20.414,0,0,0,16.544-32.1A24.222,24.222,0,0,1,351.472,27.3ZM312.39,39.471a16.793,16.793,0,0,1,16.724-16.858,16.56,16.56,0,0,1,8.382,2.271c-4.975,1.548-10.76,5.923-15.514,18.863a26.485,26.485,0,0,1-4.512,7.822A16.877,16.877,0,0,1,312.39,39.471Zm33.45,0a16.793,16.793,0,0,1-16.726,16.861,16.551,16.551,0,0,1-8.7-2.456,32.064,32.064,0,0,0,6.98-7.713c2-2.73,4.021-6.372,7.961-7.854a22.339,22.339,0,0,1,7.081-1.115s-4.028-2.816-8.35-1.4c-.491.161-.964.345-1.423.544a17.549,17.549,0,0,1,9.358-7.577A16.867,16.867,0,0,1,345.84,39.471Z" transform="translate(-306.151 -19.086)"/>
          </g>
        </g>
      </g>
    </g>
  </g>
</svg>
