<?xml version="1.0" encoding="utf-8"?>
<!-- Generator: Adobe Illustrator 25.0.1, SVG Export Plug-In . SVG Version: 6.00 Build 0)  -->
<svg version="1.1" id="Wortbildmarke" xmlns="http://www.w3.org/2000/svg" xmlns:xlink="http://www.w3.org/1999/xlink" x="0px"
	 y="0px" viewBox="0 0 283.46 92.33" style="enable-background:new 0 0 283.46 92.33;" xml:space="preserve">
<style type="text/css">
	.st0{fill:#092A45;}
	.st1{fill:#00A9C1;}
</style>
<path id="Wortmarke" class="st0" d="M54.58,57.38c0,13.94-8.3,23.31-20.65,23.31s-20.65-9.37-20.65-23.31
	c0-6.94,1.95-12.82,5.64-17.01c3.69-4.19,8.88-6.4,15.02-6.4s11.33,2.22,15.02,6.4C52.63,44.56,54.58,50.45,54.58,57.38z
	 M33.93,22.33C14.27,22.33,0,37.07,0,57.38c0,9.88,3.39,18.81,9.56,25.14c6.15,6.32,14.81,9.81,24.37,9.81
	c9.51,0,18.16-3.55,24.37-10c6.16-6.4,9.55-15.26,9.55-24.95c0-9.96-3.39-18.93-9.56-25.27C52.16,25.81,43.51,22.33,33.93,22.33z
	 M98.87,82.01c-7.3,0-11.48-3.11-11.48-8.14c0-3.2,1.8-7.02,10.37-7.02c4.59,0,8.6,0.7,11.93,2.08v11.43
	C106.14,81.46,102.5,82.01,98.87,82.01z M115.36,40.85c-4.15-3.38-10-5.1-17.39-5.1c-10.47,0-18.25,4.62-21.2,7.27
	c-0.19,0.17-0.27,0.42-0.23,0.66c0.62,3.35,2.53,6.09,5.42,7.65c0.25,0.13,0.55,0.12,0.78-0.04c3.3-2.37,8.4-5.06,14.33-5.06
	c8.12,0,12.59,3.56,12.59,10.03V59c0,0.17-0.16,0.28-0.32,0.23c-3.58-1.23-7.82-1.85-12.61-1.85c-7.7-0.07-14.11,2.04-18.05,5.94
	c-2.89,2.87-4.36,6.97-4.36,11.33c0,11.14,8.31,17.27,23.41,17.27c8.2,0,17.39-1.93,24.07-5.05c0.26-0.12,0.42-0.38,0.42-0.66
	l0.03-28.51C122.27,50.27,119.95,44.59,115.36,40.85z M170.66,62.78c-3.22-2.29-7.75-3.83-14.27-4.84
	c-9.53-1.53-11.27-3.38-11.27-6.47c0-3.48,3.18-5.25,9.46-5.25c5.33,0,10.83,1.32,15.08,3.65c0.27,0.15,0.6,0.12,0.84-0.09
	c2.28-1.96,3.81-4.86,4.4-8.37c0.05-0.28-0.07-0.56-0.31-0.72c-4.57-3.07-11.84-4.94-19.55-4.94c-13.33,0-22.29,6.67-22.29,16.61
	c0,5.17,1.86,9.01,5.67,11.75c2.96,2.13,7,3.53,12.7,4.41c9.03,1.38,12.39,3.25,12.39,6.91c0,2.85-1.74,6.24-10.03,6.24
	c-7.63,0-12.19-2.37-15.86-4.97c-0.25-0.18-0.59-0.18-0.85,0c-2.47,1.72-4.4,4.63-5.37,8.13c-0.08,0.28,0.02,0.58,0.25,0.76
	c2.67,2.15,9.53,6.45,21.6,6.45c14.45,0,23.07-6.67,23.07-17.83C176.32,69.23,174.47,65.49,170.66,62.78z M196.73,58.72
	c0.47-3.61,1.88-6.67,4.1-8.88c2.37-2.36,5.57-3.6,9.25-3.6c8.58,0.11,11.67,6.5,11.7,12.48H196.73z M210.09,35.76
	c-7.35,0-14.09,2.84-18.99,7.99c-4.93,5.2-7.65,12.41-7.65,20.32c0,8.38,2.66,15.44,7.7,20.43c4.9,4.86,11.69,7.43,19.61,7.43
	c8.37,0,15.52-2.4,21.74-7.27c0.21-0.17,0.31-0.44,0.27-0.71c-0.52-3.03-2.57-6.25-5.08-8.03c-0.25-0.18-0.59-0.18-0.84,0
	c-3.2,2.26-7.65,5.19-15.19,5.19c-8.5,0-13.97-5.04-15.03-13.82l36.66,0c0.37,0,0.69-0.28,0.73-0.65c0.28-2.57,0.38-4.4,0.38-6.93
	C234.38,45.61,224.39,35.76,210.09,35.76z"/>
<path id="Bildmarke" class="st1" d="M246,36.5c-10.38-16.18-28.36-20.36-41.97-18.57c-0.8,0.11-0.94-0.22-0.32-0.73
	c35.79-29.46,48.54,10.22,79.04-16.97c0.49-0.43,0.8-0.26,0.69,0.38c-2.57,14.97-14.2,34.32-36.81,36.21
	C246.41,36.84,246.12,36.7,246,36.5z"/>
</svg>
