<svg width="197" height="113" xmlns="http://www.w3.org/2000/svg" xmlns:xlink="http://www.w3.org/1999/xlink" version="1.1">
 <title>Logo</title>
 <defs>
  <path id="path-1" d="m0,0.00006l0,87.86352c0,1.21248 0.63107,2.33703 1.66574,2.96976c1.03412,0.63052 2.32344,0.68045 3.4025,0.12677c23.60777,-12.10929 54.58918,-14.18197 80.82552,-5.41942l0.94341,0.319c10.47268,3.48489 21.55229,5.40111 32.93176,5.69598c1.01803,0.02663 2.04189,0.03995 3.06408,0.03995c1.02191,0 2.04244,-0.01332 3.05409,-0.03995c17.44189,-0.44799 34.1337,-4.65548 48.27157,-12.16699c1.13675,-0.60388 1.84715,-1.78641 1.84715,-3.07323l0,-76.31539l-176.00582,0z"/>
  <filter id="filter-2" filterUnits="objectBoundingBox" height="132.8%" width="117.0%" y="-16.4%" x="-8.5%">
   <feGaussianBlur result="shadowBlurOuter1" in="shadowOffsetOuter1" stdDeviation="5"/>
  </filter>
 </defs>
 <g>
  <title>Layer 1</title>
  <g fill-rule="evenodd" fill="none" id="07_Symbols">
   <g id="module-/-navigation-/-desktop-/-white">
    <g id="Logo-Copy">
     <g id="Logo">
      <g id="Fill-2">
       <use id="svg_1" x="11.95637" y="-0.14433" xlink:href="#path-1" filter="url(#filter-2)" fill="black"/>
       <use id="svg_2" x="11.95637" y="-0.14433" xlink:href="#path-1" fill-rule="evenodd" fill="#FFFFFF"/>
      </g>
      <path fill="#FFED00" id="Fill-4" d="m184.48206,76.17107c-13.56949,7.2097 -29.89182,11.32898 -46.72788,11.76116c-1.97448,0.05187 -3.95395,0.05187 -5.93787,0c-10.73231,-0.27795 -21.5631,-2.07101 -31.92399,-5.519c-0.16838,-0.05659 -0.33454,-0.10957 -0.50291,-0.16533c-0.13814,-0.04715 -0.27212,-0.0957 -0.40888,-0.14285c-28.18447,-9.41304 -59.86962,-6.52899 -83.54397,5.61414l0,-87.86352l169.0455,0l0,76.3154z"/>
      <path fill="#00477A" id="Fill-6" d="m63.36691,51.76352c-0.05631,-2.08655 -0.05631,-5.58336 -0.51539,-7.59944c-0.34231,-1.481 -1.08516,-3.16062 -3.08516,-3.16062c-2.11651,0 -4.05881,1.47657 -4.05881,10.76006l7.65936,0zm7.31789,11.50153c-3.48765,6.25492 -6.74535,8.40832 -11.31872,8.40832c-5.77365,0 -11.6061,-4.98003 -11.6061,-16.48211c0,-9.95173 5.20249,-16.27351 11.77753,-16.27351c9.94702,0 10.68987,11.70208 10.86158,15.33148l-14.40694,0c0.17226,5.71873 1.42802,12.57837 6.85937,12.57837c3.37559,0 5.37475,-2.95784 6.46047,-4.50652l1.37281,0.94397z"/>
      <path fill="#00477A" id="Fill-8" d="m86.8392,42.27595l-5.3742,0l0,20.6527c0,1.07434 -0.05742,3.83135 2.22912,3.83135c1.65937,0 2.63052,-2.08322 3.25909,-3.49487l1.42996,0.73786c-1.20084,2.89099 -3.25909,7.53343 -8.40472,7.53343c-6.1742,0 -6.4025,-5.65021 -6.45992,-7.06186l0,-22.19861l-2.97226,0l0,-1.81665c3.02968,-3.02413 5.60305,-5.57642 9.4896,-12.09986l1.42913,0l0,11.36644l5.3742,0l0,2.55007z"/>
      <path fill="#00477A" id="Fill-10" d="m165.08733,42.46083c-0.19973,-1.38918 0.0577,-2.93093 -1.01443,-3.93121c-0.60582,-0.35534 -1.23689,-0.64133 -1.8932,-0.88183c-0.22829,-0.04743 -0.54813,-0.05631 -0.66657,0.19196c0.05769,0.75451 0.36116,1.41997 0.52759,2.12566c0.14869,0.55034 0.27379,1.12205 0.23856,1.73536c0.06269,1.2982 -0.02829,2.54896 -0.41581,3.72455c-0.17503,0.77171 -0.46657,1.58391 -0.13897,2.3412c0.34951,0.64466 0.95783,1.06657 1.70818,1.05999c0.25243,-0.13101 0.62136,-0.26083 0.71623,-0.60119c0.28183,-0.4036 0.34064,-0.95062 0.55173,-1.40138c-0.01831,-0.15729 -0.01331,-0.38558 0.12566,-0.49792c-0.04244,-0.22691 0.07823,-0.43274 0.03523,-0.63634c0.33065,-0.60832 0.07018,-1.27268 0.28932,-1.95118c-0.10458,-0.41165 -0.00666,-0.79362 -0.06352,-1.27767"/>
      <path fill="#00477A" id="Fill-12" d="m169.21898,52.96815c-0.15839,0.13565 -0.09681,0.36089 -0.2369,0.49737c-0.48016,1.28932 -1.36643,2.22663 -2.04577,3.39389c-1.35977,1.79446 -2.84105,3.12927 -4.557,4.55174c-1.39251,1.40277 -2.60943,3.15617 -1.90125,5.23911c0.08627,0.27795 0.26047,0.59861 0.11956,0.84633c-1.12816,-0.5215 -1.69959,-1.56061 -2.34064,-2.45742c-1.45686,-2.23995 -4.14313,-2.22525 -6.28516,-3.22386c-2.55451,-0.78086 -5.02274,-2.58225 -6.29071,-5.08988c-0.90041,-1.67683 -1.28099,-4.14369 -0.56172,-5.97031c0.09959,-0.43218 0.26602,-0.74591 0.43634,-1.15867c0.23579,-0.44577 0.64966,-0.82386 0.95284,-1.22857c1.27684,-1.13537 2.88156,-1.80555 4.66131,-1.90847c0.043,-0.04466 0.13703,-0.06352 0.18668,-0.15339c-0.01858,-0.41276 -0.51844,-0.37615 -0.76393,-0.6086c-1.44799,-0.41581 -2.83662,-0.42081 -4.27962,-0.01748c-0.52649,0.2405 -1.05464,0.47934 -1.5595,0.71845c-0.20471,-0.0724 -0.42857,-0.09764 -0.51844,-0.30513c0.14868,-1.70319 0.70235,-3.24078 1.70818,-4.6516c0.10069,-0.27378 0.28266,-0.45132 0.42552,-0.72066c0.30541,-0.36006 0.75035,-1.03301 1.33925,-0.97504c0.7878,0.42608 1.25354,1.16283 2.10985,1.43024c0.31955,0.00749 0.70125,0.2871 0.91262,-0.09515c-0.1018,-0.50374 -0.4147,-0.89542 -0.65853,-1.26519l-0.13121,-0.27406l-0.37836,-1.37337c-0.01276,-0.68516 0.09958,-1.58974 0.38641,-2.17809c0.15922,-0.11068 0.25631,-0.3595 0.48405,-0.3778c0.5889,0.05991 0.96699,0.49875 1.41581,0.82663c0.08349,0.38834 0.53232,0.62385 0.6172,1.03633l0.0208,0.04688c0.46075,0.85104 0.52927,1.98835 0.37365,3.00888c0.06463,0.11512 0.08405,0.23079 0.21748,0.32316c0.61525,0.01443 0.99084,-0.45631 1.38724,-0.92732c0.53703,-0.67074 0.39611,-1.65104 0.36698,-2.47101c-0.28099,-0.78059 -0.90319,-1.4552 -1.62441,-1.90125c0.00111,-0.09071 0.14009,-0.17726 0.23191,-0.19972c1.41192,0.00332 2.45963,0.98335 3.94202,0.96726c0.72594,0.03606 1.43218,0.05049 2.11817,-0.16061c0.16338,-0.15839 0.23495,-0.33869 0.28377,-0.51983c-0.02829,-0.84133 -0.98419,-0.79334 -1.54979,-1.00777c-0.56449,-0.24022 -0.95895,-0.88682 -1.59556,-0.94396c-0.86602,0.09736 -1.9129,0.18779 -2.6086,-0.41582c-0.97254,-0.24798 -1.96172,0.14231 -2.87351,0.30403c-1.83357,0.5104 -3.57809,1.33952 -5.05908,2.6061c-0.29959,0.13121 -0.60084,0.46851 -0.94037,0.25465c-0.03523,-0.47823 0.34037,-1.08461 -0.1742,-1.39196c-0.20166,-0.11761 -0.47462,-0.19112 -0.54008,-0.41886c0.64882,-0.55645 1.54702,0.07517 2.28044,-0.27157c0.09515,-0.15978 0.19113,-0.31734 0.05798,-0.48044c-0.4921,-0.50985 -1.31013,-0.50319 -1.82275,-0.99085c-0.02053,-0.16033 0.11734,-0.22552 0.2319,-0.26741c0.84244,-0.05048 1.84244,0.12622 2.65326,0.44106c0.31817,0.05021 0.81304,0.28765 1.04993,-0.07157c0.09792,-0.45354 -0.44022,-0.68987 -0.7104,-0.94591c-0.51845,-0.26158 -1.08405,-0.41193 -1.6025,-0.62469c-0.08821,-0.09431 -0.1362,-0.11789 -0.10873,-0.25187l0.27378,-0.13121c1.11678,0.04577 2.09293,0.15479 2.99223,0.6982c0.31485,0.04993 0.69737,0.30957 0.99889,0.06297c-0.16726,-0.61803 -0.87156,-0.83634 -1.36504,-1.11761c-0.3853,-0.12123 -0.81387,-0.22025 -1.05853,-0.5473c0,0.02413 -0.02525,0.04494 -0.04494,0.02386c-0.04494,-0.02386 -0.02247,-0.06963 -0.02247,-0.13676c1.09792,-0.32094 2.27379,0.18058 3.26491,0.6111c0.44882,0.30596 0.94341,0.54285 1.41858,0.82635c0.80805,0.44965 1.52816,-0.15229 2.25715,-0.34036c0.52371,0.09958 1.13703,0.13592 1.46657,0.6405c0.78558,0.51761 2.11928,-0.07074 2.85603,0.67323c0.83163,0.49653 1.07934,1.70541 2.07435,2.02413c0.99667,0.26658 1.84799,0.9473 2.44188,1.84605c0.4688,0.66879 0.7007,1.4233 1.00583,2.18308l0.37559,0.43745c1.39528,0.89403 2.6172,2.28377 3.38446,3.7104c0.8835,1.42996 1.19251,3.02802 1.40888,4.71678c0.02635,2.00167 -0.32871,3.83828 -0.98058,5.62219m-13.14175,-27.40444c-12.67878,0 -22.96061,10.281 -22.96061,22.96006c0,12.67989 10.28183,22.95895 22.96061,22.95895c12.681,0 22.95811,-10.27906 22.95811,-22.95895c0,-12.67906 -10.27711,-22.96006 -22.95811,-22.96006"/>
      <path fill="#FFFFFF" id="Fill-14" d="m164.82619,46.32591c-0.13897,0.11234 -0.14397,0.34091 -0.12538,0.49792c-0.21138,0.45104 -0.27018,0.99805 -0.55174,1.40166c-0.09486,0.34008 -0.4638,0.4699 -0.71622,0.60118c-0.75063,0.00631 -1.35895,-0.41533 -1.70846,-1.06026c-0.32733,-0.75701 -0.03606,-1.56949 0.13897,-2.3412c0.38779,-1.17531 0.4785,-2.42635 0.41581,-3.72427c0.03523,-0.61359 -0.08987,-1.18502 -0.23856,-1.73537c-0.16643,-0.70568 -0.46962,-1.37143 -0.52732,-2.12566c0.11817,-0.24826 0.43828,-0.23939 0.6663,-0.19195c0.65631,0.2405 1.28765,0.52621 1.8932,0.88183c1.07212,1 0.81498,2.54175 1.01443,3.93093c0.05686,0.48433 -0.04106,0.86602 0.0638,1.27795c-0.21914,0.67822 0.04105,1.34285 -0.2896,1.9509c0.04299,0.2036 -0.07739,0.40971 -0.03523,0.63634m3.96449,-3.69681c-0.76726,-1.42636 -1.98918,-2.81609 -3.38446,-3.71041l-0.37559,-0.43717c-0.30513,-0.76005 -0.53703,-1.51428 -1.00583,-2.18335c-0.59389,-0.89876 -1.44521,-1.5792 -2.44188,-1.84605c-0.99501,-0.31872 -1.24272,-1.5276 -2.07435,-2.02413c-0.73675,-0.74397 -2.07045,-0.15562 -2.85603,-0.67324c-0.32954,-0.50457 -0.94286,-0.54091 -1.46657,-0.64022c-0.72899,0.1878 -1.4491,0.79002 -2.25715,0.34009c-0.47545,-0.2835 -0.96976,-0.52011 -1.41858,-0.82608c-0.99112,-0.43079 -2.16699,-0.93204 -3.26491,-0.61137c0,0.0674 -0.02247,0.1129 0.02247,0.13675c0.01969,0.02108 0.04494,0.00056 0.04494,-0.02385c0.24466,0.32704 0.67323,0.42607 1.05853,0.54729c0.4932,0.28128 1.19778,0.49986 1.36504,1.11789c-0.30152,0.24633 -0.68404,-0.01331 -0.99916,-0.06324c-0.89903,-0.54314 -1.87518,-0.65215 -2.99196,-0.69792l-0.27378,0.13093c-0.02747,0.13426 0.02052,0.15756 0.10873,0.25187c0.51845,0.21304 1.08405,0.36311 1.6025,0.62469c0.27018,0.25631 0.80832,0.49237 0.7104,0.94618c-0.23689,0.35895 -0.73176,0.1215 -1.04993,0.07129c-0.81082,-0.31484 -1.81082,-0.49154 -2.65326,-0.44105c-0.11456,0.04189 -0.25243,0.10707 -0.2319,0.26741c0.51262,0.48765 1.33065,0.481 1.82275,0.99112c0.13315,0.16283 0.03717,0.32039 -0.05798,0.48044c-0.73342,0.34674 -1.6319,-0.28488 -2.28044,0.27129c0.06546,0.22774 0.33842,0.30153 0.54008,0.41887c0.51457,0.30735 0.13897,0.91373 0.1742,1.39195c0.33926,0.21387 0.64078,-0.12316 0.94009,-0.25464c1.48127,-1.26658 3.22579,-2.09543 5.05936,-2.60583c0.91179,-0.162 1.90097,-0.55229 2.87351,-0.30402c0.6957,0.60333 1.74258,0.5129 2.60832,0.41581c0.63689,0.05687 1.03135,0.70347 1.59584,0.94397c0.56533,0.21442 1.5215,0.16643 1.54979,1.00749c-0.04882,0.18141 -0.12039,0.36172 -0.28377,0.51983c-0.68599,0.2111 -1.39223,0.19667 -2.11817,0.16061c-1.48239,0.01637 -2.5301,-0.96394 -3.94202,-0.96727c-0.09182,0.02247 -0.2308,0.10902 -0.23191,0.19972c0.72122,0.44633 1.34342,1.12095 1.62441,1.90125c0.02913,0.81998 0.17005,1.80056 -0.36726,2.47102c-0.39612,0.47101 -0.77171,0.94174 -1.38724,0.92732c-0.13315,-0.09237 -0.15257,-0.20805 -0.2172,-0.32316c0.15562,-1.02053 0.0871,-2.15784 -0.37365,-3.00888l-0.0208,-0.04688c-0.08488,-0.41248 -0.53371,-0.64799 -0.6172,-1.03634c-0.44882,-0.32788 -0.82691,-0.76643 -1.41581,-0.82663c-0.22774,0.01831 -0.32483,0.26713 -0.48405,0.37809c-0.28683,0.58807 -0.39917,1.49292 -0.38641,2.17781l0.37836,1.37337l0.13121,0.27406c0.24355,0.36977 0.55673,0.76144 0.65853,1.26519c-0.21137,0.38252 -0.59307,0.10263 -0.91262,0.09542c-0.85631,-0.26741 -1.32205,-1.00444 -2.10985,-1.43023c-0.5889,-0.05798 -1.03384,0.6147 -1.33925,0.97475c-0.14286,0.26935 -0.32483,0.44688 -0.42552,0.72067c-1.00583,1.41109 -1.5595,2.9484 -1.70818,4.65159c0.08987,0.20749 0.31373,0.23274 0.51844,0.30541c0.50486,-0.23939 1.03301,-0.47822 1.5595,-0.71872c1.443,-0.40305 2.83163,-0.39834 4.27934,0.01747c0.24577,0.23246 0.74563,0.19584 0.76421,0.60888c-0.04965,0.0896 -0.14368,0.10846 -0.18668,0.15312c-1.77975,0.10319 -3.38447,0.77337 -4.66131,1.90846c-0.30318,0.40472 -0.71705,0.78308 -0.95284,1.22857c-0.17032,0.41276 -0.33675,0.72649 -0.43634,1.15895c-0.71927,1.82663 -0.33869,4.2932 0.56145,5.97004c1.26824,2.50791 3.73647,4.30902 6.29098,5.08988c2.14203,0.99861 4.8283,0.98418 6.28516,3.22385c0.64105,0.89709 1.21221,1.93592 2.34064,2.45742c0.14091,-0.24743 -0.03329,-0.56838 -0.11956,-0.84604c-0.70846,-2.08295 0.50874,-3.83662 1.90125,-5.23939c1.71595,-1.42247 3.19723,-2.75729 4.557,-4.55146c0.67934,-1.16727 1.56561,-2.10458 2.04577,-3.39418c0.14009,-0.13647 0.07851,-0.36144 0.2369,-0.49736c0.65187,-1.78363 1.00693,-3.62025 0.98058,-5.62191c-0.21637,-1.68905 -0.52538,-3.28711 -1.40888,-4.71706"/>
      <path fill="#00477A" id="Fill-16" d="m119.68896,64.00291c-0.79944,1.07712 -2.11733,2.89098 -4.05825,2.89098c-2.0577,0 -2.91595,-2.41941 -2.91595,-4.50319c0,-5.85187 5.65742,-7.80471 6.9742,-8.14147l0,9.75368zm11.93842,0.07822c-0.57337,1.28461 -1.37559,3.26963 -2.85104,3.36755c-1.18003,-0.05104 -1.19944,-1.21304 -1.19944,-1.60555l0,-17.55506c0,-6.32067 -5.08655,-9.21332 -11.43357,-9.21332c-2.68876,0 -4.90568,0.43385 -6.61303,1.20111c-0.72317,-0.78779 -1.78669,-1.35811 -3.3265,-1.35811c-3.71289,0 -6.2871,4.03606 -7.48737,6.12067l-0.11512,0l0,-5.31263l-10.80333,0l0,1.61387c1.71345,0.26824 3.08571,0.60611 3.08571,3.96727l0,19.7731c0,3.36282 -1.25631,3.63273 -3.08571,4.03495l0,1.61414l15.20555,0l0,-1.61414c-3.48599,-0.20167 -4.17171,-1.21221 -4.17171,-5.31457l0,-12.70901c0,-4.91124 2.75395,-6.06769 3.60805,-5.99612c3.71206,0.3104 1.98918,3.42247 4.57309,5.01193c0.17531,0.10874 0.34646,0.18197 0.50985,0.22774c0.84327,0.37753 1.69043,0.27989 2.00471,0.2355c2.31873,-0.33092 3.97309,-2.64798 3.37725,-4.76643c-0.55977,-1.99723 0.13232,-4.36949 2.49987,-4.71484c4.18557,-0.60999 4.34008,2.62524 4.34008,6.05853l0,4.90874c-8.11761,2.88959 -15.37559,5.58113 -15.37559,12.57559c0,5.11289 3.54203,7.195 6.2871,7.195c1.37087,0 5.37282,-0.33675 9.08849,-4.70818c0.34258,1.88544 0.80139,4.70818 4.80305,4.70818c0.18197,0 0.35922,-0.00582 0.53121,-0.01664l0.03023,0c4.80777,0 6.7326,-4.33925 7.85548,-7.0405l-1.33731,-0.68877z"/>
      <path fill="#00477A" id="Fill-18" d="m49.37659,70.72915l-21.07767,0l0,-1.73564c4.30985,-0.41581 5.7276,-0.55756 5.7276,-6.39279l0,-34.21304c-4.13259,0.27823 -10.20832,-0.55007 -11.39473,8.98946l-1.7129,0l0.17754,-11.20999l35.42468,0l0.11734,11.20999l-1.7104,0c-1.05853,-9.46103 -7.26408,-8.71123 -11.33731,-8.98946l0,34.21304c0,5.90846 1.41692,6.04549 5.78585,6.39279l0,1.73564z"/>
     </g>
    </g>
   </g>
  </g>
 </g>
</svg>