{
  "accessors": [
    {
      "bufferView": 2,
      "componentType": 5126,
      "count": 81,
      "max": [
        0.006972999777644873,
        -0.2591170072555542,
        0.2305770069360733
      ],
      "min": [
        -0.11152800172567368,
        -0.3768959939479828,
        0.16181400418281555
      ],
      "type": "VEC3"
    },
    {
      "bufferView": 2,
      "byteOffset": 972,
      "componentType": 5126,
      "count": 81,
      "max": [
        0.9929872155189514,
        0.7070873379707336,
        0.9971095323562622
      ],
      "min": [
        -0.9564586281776428,
        -0.9831689596176147,
        -0.9994436502456665
      ],
      "type": "VEC3"
    },
    {
      "bufferView": 1,
      "componentType": 5126,
      "count": 81,
      "max": [
        0.0,
        0.0
      ],
      "min": [
        0.0,
        0.0
      ],
      "type": "VEC2"
    },
    {
      "bufferView": 0,
      "componentType": 5125,
      "count": 402,
      "type": "SCALAR"
    },
    {
      "bufferView": 2,
      "byteOffset": 1944,
      "componentType": 5126,
      "count": 87,
      "max": [
        0.011332999914884567,
        -0.30382800102233887,
        0.22572700679302216
      ],
      "min": [
        -0.11522000283002853,
        -0.3759700059890747,
        0.1790509968996048
      ],
      "type": "VEC3"
    },
    {
      "bufferView": 2,
      "byteOffset": 2988,
      "componentType": 5126,
      "count": 87,
      "max": [
        0.958041250705719,
        0.9979453086853027,
        0.7813184261322021
      ],
      "min": [
        -0.9578304290771484,
        -0.9979954957962036,
        -0.9910635948181152
      ],
      "type": "VEC3"
    },
    {
      "bufferView": 1,
      "byteOffset": 648,
      "componentType": 5126,
      "count": 87,
      "max": [
        4.0,
        0.9962649941444397
      ],
      "min": [
        -5.0,
        0.017671000212430954
      ],
      "type": "VEC2"
    },
    {
      "bufferView": 0,
      "byteOffset": 1608,
      "componentType": 5125,
      "count": 219,
      "type": "SCALAR"
    },
    {
      "bufferView": 2,
      "byteOffset": 4032,
      "componentType": 5126,
      "count": 14,
      "max": [
        0.1368580013513565,
        -0.009743000380694866,
        0.23365099728107452
      ],
      "min": [
        0.11730500310659409,
        -0.1106870025396347,
        0.15663400292396545
      ],
      "type": "VEC3"
    },
    {
      "bufferView": 2,
      "byteOffset": 4200,
      "componentType": 5126,
      "count": 14,
      "max": [
        -0.9240831136703491,
        0.35759347677230835,
        0.13489754498004913
      ],
      "min": [
        -0.9963624477386475,
        0.0727972611784935,
        0.044298332184553146
      ],
      "type": "VEC3"
    },
    {
      "bufferView": 1,
      "byteOffset": 1344,
      "componentType": 5126,
      "count": 14,
      "max": [
        1.9653350114822388,
        1.0118869543075562
      ],
      "min": [
        0.9905670285224915,
        0.015883000567555428
      ],
      "type": "VEC2"
    },
    {
      "bufferView": 0,
      "byteOffset": 2484,
      "componentType": 5125,
      "count": 48,
      "type": "SCALAR"
    },
    {
      "bufferView": 2,
      "byteOffset": 4368,
      "componentType": 5126,
      "count": 495,
      "max": [
        0.3244659900665283,
        0.4089989960193634,
        0.5064489841461182
      ],
      "min": [
        -0.20672699809074402,
        -0.3883189857006073,
        0.0870790034532547
      ],
      "type": "VEC3"
    },
    {
      "bufferView": 2,
      "byteOffset": 10308,
      "componentType": 5126,
      "count": 495,
      "max": [
        0.9992496371269226,
        0.9954991936683655,
        0.994398832321167
      ],
      "min": [
        -0.9943869709968567,
        -0.9978857636451721,
        -0.9991541504859924
      ],
      "type": "VEC3"
    },
    {
      "bufferView": 1,
      "byteOffset": 1456,
      "componentType": 5126,
      "count": 495,
      "max": [
        1.0,
        1.0
      ],
      "min": [
        0.0025649999734014273,
        0.0
      ],
      "type": "VEC2"
    },
    {
      "bufferView": 0,
      "byteOffset": 2676,
      "componentType": 5125,
      "count": 2418,
      "type": "SCALAR"
    },
    {
      "bufferView": 2,
      "byteOffset": 16248,
      "componentType": 5126,
      "count": 144,
      "max": [
        0.09180200099945068,
        -0.18173600733280182,
        0.379287987947464
      ],
      "min": [
        -0.18183599412441254,
        -0.3455989956855774,
        0.20638200640678406
      ],
      "type": "VEC3"
    },
    {
      "bufferView": 2,
      "byteOffset": 17976,
      "componentType": 5126,
      "count": 144,
      "max": [
        0.9909986853599548,
        0.9952107667922974,
        0.9978800415992737
      ],
      "min": [
        -0.9909986853599548,
        -0.9918693900108337,
        -0.996380627155304
      ],
      "type": "VEC3"
    },
    {
      "bufferView": 1,
      "byteOffset": 5416,
      "componentType": 5126,
      "count": 144,
      "max": [
        0.9864190220832825,
        0.9617819786071777
      ],
      "min": [
        0.0379909984767437,
        0.010187000036239624
      ],
      "type": "VEC2"
    },
    {
      "bufferView": 0,
      "byteOffset": 12348,
      "componentType": 5125,
      "count": 672,
      "type": "SCALAR"
    },
    {
      "bufferView": 2,
      "byteOffset": 19704,
      "componentType": 5126,
      "count": 18,
      "max": [
        0.08109699934720993,
        0.2687560021877289,
        0.5956900119781494
      ],
      "min": [
        -0.03613099828362465,
        -0.19655899703502655,
        0.34272000193595886
      ],
      "type": "VEC3"
    },
    {
      "bufferView": 2,
      "byteOffset": 19920,
      "componentType": 5126,
      "count": 18,
      "max": [
        -0.7767090797424316,
        0.6040070056915283,
        0.5452030301094055
      ],
      "min": [
        -0.9982081055641174,
        0.04310119152069092,
        -0.11699935793876648
      ],
      "type": "VEC3"
    },
    {
      "bufferView": 1,
      "byteOffset": 6568,
      "componentType": 5126,
      "count": 18,
      "max": [
        1.0,
        1.0
      ],
      "min": [
        -0.0,
        0.0
      ],
      "type": "VEC2"
    },
    {
      "bufferView": 0,
      "byteOffset": 15036,
      "componentType": 5125,
      "count": 60,
      "type": "SCALAR"
    },
    {
      "bufferView": 2,
      "byteOffset": 20136,
      "componentType": 5126,
      "count": 18,
      "max": [
        -0.1724569946527481,
        0.05307900160551071,
        0.27238398790359497
      ],
      "min": [
        -0.4401409924030304,
        -0.10625900328159332,
        0.16105100512504578
      ],
      "type": "VEC3"
    },
    {
      "bufferView": 2,
      "byteOffset": 20352,
      "componentType": 5126,
      "count": 18,
      "max": [
        0.7121229767799377,
        0.8860169649124146,
        -0.43310829997062683
      ],
      "min": [
        0.04689826816320419,
        -0.2817862629890442,
        -0.8440991044044495
      ],
      "type": "VEC3"
    },
    {
      "bufferView": 1,
      "byteOffset": 6712,
      "componentType": 5126,
      "count": 18,
      "max": [
        1.9888800382614136,
        1.0
      ],
      "min": [
        0.9986019730567932,
        0.0
      ],
      "type": "VEC2"
    },
    {
      "bufferView": 0,
      "byteOffset": 15276,
      "componentType": 5125,
      "count": 66,
      "type": "SCALAR"
    },
    {
      "bufferView": 2,
      "byteOffset": 20568,
      "componentType": 5126,
      "count": 12,
      "max": [
        0.013987000100314617,
        0.028565000742673874,
        0.09065700322389603
      ],
      "min": [
        -0.05662300065159798,
        -0.04902299866080284,
        0.012236000038683414
      ],
      "type": "VEC3"
    },
    {
      "bufferView": 2,
      "byteOffset": 20712,
      "componentType": 5126,
      "count": 12,
      "max": [
        0.8787264227867126,
        0.2793046534061432,
        0.22890092432498932
      ],
      "min": [
        -0.9767140746116638,
        -0.4749252498149872,
        -0.4817916750907898
      ],
      "type": "VEC3"
    },
    {
      "bufferView": 1,
      "byteOffset": 6856,
      "componentType": 5126,
      "count": 12,
      "max": [
        1.000080943107605,
        1.0
      ],
      "min": [
        0.0,
        0.0
      ],
      "type": "VEC2"
    },
    {
      "bufferView": 0,
      "byteOffset": 15540,
      "componentType": 5125,
      "count": 24,
      "type": "SCALAR"
    },
    {
      "bufferView": 2,
      "byteOffset": 20856,
      "componentType": 5126,
      "count": 6,
      "max": [
        0.07769600301980972,
        0.22685100138187408,
        0.16383999586105347
      ],
      "min": [
        -0.02681400068104267,
        0.03912099823355675,
        0.03163300082087517
      ],
      "type": "VEC3"
    },
    {
      "bufferView": 2,
      "byteOffset": 20928,
      "componentType": 5126,
      "count": 6,
      "max": [
        -0.7467978596687317,
        0.5800115466117859,
        -0.0064999861642718315
      ],
      "min": [
        -0.9433979988098145,
        0.14749844372272491,
        -0.4658817946910858
      ],
      "type": "VEC3"
    },
    {
      "bufferView": 1,
      "byteOffset": 6952,
      "componentType": 5126,
      "count": 6,
      "max": [
        1.0,
        0.9572359919548035
      ],
      "min": [
        0.0,
        0.0
      ],
      "type": "VEC2"
    },
    {
      "bufferView": 0,
      "byteOffset": 15636,
      "componentType": 5125,
      "count": 12,
      "type": "SCALAR"
    },
    {
      "bufferView": 2,
      "byteOffset": 21000,
      "componentType": 5126,
      "count": 18,
      "max": [
        0.05010300129652023,
        -0.32046300172805786,
        0.3503429889678955
      ],
      "min": [
        -0.14485299587249756,
        -0.3455989956855774,
        0.28345799446105957
      ],
      "type": "VEC3"
    },
    {
      "bufferView": 2,
      "byteOffset": 21216,
      "componentType": 5126,
      "count": 18,
      "max": [
        0.30760446190834045,
        -0.8579694032669067,
        0.47218790650367737
      ],
      "min": [
        -0.35510843992233276,
        -0.9878368377685547,
        0.09960372000932693
      ],
      "type": "VEC3"
    },
    {
      "bufferView": 1,
      "byteOffset": 7000,
      "componentType": 5126,
      "count": 18,
      "max": [
        0.8909310102462769,
        0.8636630177497864
      ],
      "min": [
        -0.10906899720430374,
        -0.13633599877357483
      ],
      "type": "VEC2"
    },
    {
      "bufferView": 0,
      "byteOffset": 15684,
      "componentType": 5125,
      "count": 48,
      "type": "SCALAR"
    }
  ],
  "asset": {
    "extras": {
      "author": "CLfanmodel (https://sketchfab.com/jamescontreras2001)",
      "license": "CC-BY-4.0 (http://creativecommons.org/licenses/by/4.0/)",
      "source": "https://sketchfab.com/3d-models/nemo-afbe7525deb84032b90193fa8fa3c8a6",
      "title": "Nemo"
    },
    "generator": "Sketchfab-16.64.0",
    "version": "2.0"
  },
  "bufferViews": [
    {
      "buffer": 0,
      "byteLength": 15876,
      "name": "floatBufferViews",
      "target": 34963
    },
    {
      "buffer": 0,
      "byteLength": 7144,
      "byteOffset": 15876,
      "byteStride": 8,
      "name": "floatBufferViews",
      "target": 34962
    },
    {
      "buffer": 0,
      "byteLength": 21432,
      "byteOffset": 23020,
      "byteStride": 12,
      "name": "floatBufferViews",
      "target": 34962
    }
  ],
  "buffers": [
    {
      "byteLength": 44452,
      "uri": "scene.bin"
    }
  ],
  "images": [
    {
      "uri": "textures/mat_51_baseColor.png"
    },
    {
      "uri": "textures/mat_52_baseColor.png"
    },
    {
      "uri": "textures/mat_53_baseColor.png"
    },
    {
      "uri": "textures/mat_54_baseColor.png"
    },
    {
      "uri": "textures/mat_55_baseColor.png"
    },
    {
      "uri": "textures/mat_60_baseColor.png"
    },
    {
      "uri": "textures/mat_61_baseColor.png"
    },
    {
      "uri": "textures/mat_62_baseColor.png"
    },
    {
      "uri": "textures/mat_63_baseColor.png"
    },
    {
      "uri": "textures/mat_64_baseColor.png"
    }
  ],
  "materials": [
    {
      "doubleSided": true,
      "name": "mat_51",
      "pbrMetallicRoughness": {
        "baseColorTexture": {
          "index": 0
        },
        "metallicFactor": 0.0
      }
    },
    {
      "doubleSided": true,
      "name": "mat_52",
      "pbrMetallicRoughness": {
        "baseColorTexture": {
          "index": 1
        },
        "metallicFactor": 0.0
      }
    },
    {
      "doubleSided": true,
      "name": "mat_53",
      "pbrMetallicRoughness": {
        "baseColorTexture": {
          "index": 2
        },
        "metallicFactor": 0.0
      }
    },
    {
      "doubleSided": true,
      "name": "mat_54",
      "pbrMetallicRoughness": {
        "baseColorTexture": {
          "index": 3
        },
        "metallicFactor": 0.0
      }
    },
    {
      "doubleSided": true,
      "name": "mat_55",
      "pbrMetallicRoughness": {
        "baseColorTexture": {
          "index": 4
        },
        "metallicFactor": 0.0
      }
    },
    {
      "alphaMode": "BLEND",
      "doubleSided": true,
      "name": "mat_60",
      "pbrMetallicRoughness": {
        "baseColorTexture": {
          "index": 5
        },
        "metallicFactor": 0.0
      }
    },
    {
      "alphaMode": "BLEND",
      "doubleSided": true,
      "name": "mat_61",
      "pbrMetallicRoughness": {
        "baseColorTexture": {
          "index": 6
        },
        "metallicFactor": 0.0
      }
    },
    {
      "alphaMode": "BLEND",
      "doubleSided": true,
      "name": "mat_62",
      "pbrMetallicRoughness": {
        "baseColorTexture": {
          "index": 7
        },
        "metallicFactor": 0.0
      }
    },
    {
      "alphaMode": "BLEND",
      "doubleSided": true,
      "name": "mat_63",
      "pbrMetallicRoughness": {
        "baseColorTexture": {
          "index": 8
        },
        "metallicFactor": 0.0
      }
    },
    {
      "alphaMode": "BLEND",
      "doubleSided": true,
      "name": "mat_64",
      "pbrMetallicRoughness": {
        "baseColorTexture": {
          "index": 9
        },
        "metallicFactor": 0.0
      }
    }
  ],
  "meshes": [
    {
      "name": "Object_0",
      "primitives": [
        {
          "attributes": {
            "NORMAL": 1,
            "POSITION": 0,
            "TEXCOORD_0": 2
          },
          "indices": 3,
          "material": 0,
          "mode": 4
        }
      ]
    },
    {
      "name": "Object_1",
      "primitives": [
        {
          "attributes": {
            "NORMAL": 5,
            "POSITION": 4,
            "TEXCOORD_0": 6
          },
          "indices": 7,
          "material": 1,
          "mode": 4
        }
      ]
    },
    {
      "name": "Object_2",
      "primitives": [
        {
          "attributes": {
            "NORMAL": 9,
            "POSITION": 8,
            "TEXCOORD_0": 10
          },
          "indices": 11,
          "material": 2,
          "mode": 4
        }
      ]
    },
    {
      "name": "Object_3",
      "primitives": [
        {
          "attributes": {
            "NORMAL": 13,
            "POSITION": 12,
            "TEXCOORD_0": 14
          },
          "indices": 15,
          "material": 3,
          "mode": 4
        }
      ]
    },
    {
      "name": "Object_4",
      "primitives": [
        {
          "attributes": {
            "NORMAL": 17,
            "POSITION": 16,
            "TEXCOORD_0": 18
          },
          "indices": 19,
          "material": 4,
          "mode": 4
        }
      ]
    },
    {
      "name": "Object_5",
      "primitives": [
        {
          "attributes": {
            "NORMAL": 21,
            "POSITION": 20,
            "TEXCOORD_0": 22
          },
          "indices": 23,
          "material": 5,
          "mode": 4
        }
      ]
    },
    {
      "name": "Object_6",
      "primitives": [
        {
          "attributes": {
            "NORMAL": 25,
            "POSITION": 24,
            "TEXCOORD_0": 26
          },
          "indices": 27,
          "material": 6,
          "mode": 4
        }
      ]
    },
    {
      "name": "Object_7",
      "primitives": [
        {
          "attributes": {
            "NORMAL": 29,
            "POSITION": 28,
            "TEXCOORD_0": 30
          },
          "indices": 31,
          "material": 7,
          "mode": 4
        }
      ]
    },
    {
      "name": "Object_8",
      "primitives": [
        {
          "attributes": {
            "NORMAL": 33,
            "POSITION": 32,
            "TEXCOORD_0": 34
          },
          "indices": 35,
          "material": 8,
          "mode": 4
        }
      ]
    },
    {
      "name": "Object_9",
      "primitives": [
        {
          "attributes": {
            "NORMAL": 37,
            "POSITION": 36,
            "TEXCOORD_0": 38
          },
          "indices": 39,
          "material": 9,
          "mode": 4
        }
      ]
    }
  ],
  "nodes": [
    {
      "children": [
        1
      ],
      "matrix": [
        1.0,
        0.0,
        0.0,
        0.0,
        0.0,
        2.220446049250313e-16,
        -1.0,
        0.0,
        0.0,
        1.0,
        2.220446049250313e-16,
        0.0,
        0.0,
        0.0,
        0.0,
        1.0
      ],
      "name": "Sketchfab_model"
    },
    {
      "children": [
        2,
        3,
        4,
        5,
        6,
        7,
        8,
        9,
        10,
        11
      ],
      "name": "Nemo.obj.cleaner.materialmerger.gles"
    },
    {
      "mesh": 0,
      "name": "Object_2"
    },
    {
      "mesh": 1,
      "name": "Object_3"
    },
    {
      "mesh": 2,
      "name": "Object_4"
    },
    {
      "mesh": 3,
      "name": "Object_5"
    },
    {
      "mesh": 4,
      "name": "Object_6"
    },
    {
      "mesh": 5,
      "name": "Object_7"
    },
    {
      "mesh": 6,
      "name": "Object_8"
    },
    {
      "mesh": 7,
      "name": "Object_9"
    },
    {
      "mesh": 8,
      "name": "Object_10"
    },
    {
      "mesh": 9,
      "name": "Object_11"
    }
  ],
  "samplers": [
    {
      "magFilter": 9729,
      "minFilter": 9987,
      "wrapS": 10497,
      "wrapT": 10497
    }
  ],
  "scene": 0,
  "scenes": [
    {
      "name": "Sketchfab_Scene",
      "nodes": [
        0
      ]
    }
  ],
  "textures": [
    {
      "sampler": 0,
      "source": 0
    },
    {
      "sampler": 0,
      "source": 1
    },
    {
      "sampler": 0,
      "source": 2
    },
    {
      "sampler": 0,
      "source": 3
    },
    {
      "sampler": 0,
      "source": 4
    },
    {
      "sampler": 0,
      "source": 5
    },
    {
      "sampler": 0,
      "source": 6
    },
    {
      "sampler": 0,
      "source": 7
    },
    {
      "sampler": 0,
      "source": 8
    },
    {
      "sampler": 0,
      "source": 9
    }
  ]
}
