{
    "asset": {
        "version": "2.0",
        "generator": "Open Asset Import Library (assimp v5.2.cf7d3637)"
    },
    "extensionsUsed": [
        "KHR_materials_volume",
        "FB_ngon_encoding"
    ],
    "accessors": [
        {
            "bufferView": 0,
            "byteOffset": 0,
            "componentType": 5126,
            "count": 2472,
            "type": "VEC3",
            "max": [
                1.0015641450881959,
                1.252492070198059,
                4.995473861694336
            ],
            "min": [
                -1.0009009838104249,
                -1.368431568145752,
                -2.2027838230133058
            ]
        },
        {
            "bufferView": 1,
            "byteOffset": 0,
            "componentType": 5126,
            "count": 2472,
            "type": "VEC3",
            "max": [
                0.9999722838401794,
                0.998751699924469,
                0.9998663663864136
            ],
            "min": [
                -0.9999833106994629,
                -0.9994112253189087,
                -0.9999533891677856
            ]
        },
        {
            "bufferView": 2,
            "byteOffset": 0,
            "componentType": 5126,
            "count": 2472,
            "type": "VEC2",
            "max": [
                1.0,
                1.0
            ],
            "min": [
                0.0,
                5.960464477539063e-8
            ]
        },
        {
            "bufferView": 3,
            "byteOffset": 0,
            "componentType": 5125,
            "count": 2472,
            "type": "SCALAR",
            "max": [
                2471
            ],
            "min": [
                0
            ]
        }
    ],
    "buffers": [
        {
            "byteLength": 88992,
            "uri": "result.bin"
        }
    ],
    "bufferViews": [
        {
            "buffer": 0,
            "byteOffset": 0,
            "byteLength": 29664,
            "target": 34962
        },
        {
            "buffer": 0,
            "byteOffset": 29664,
            "byteLength": 29664,
            "target": 34962
        },
        {
            "buffer": 0,
            "byteOffset": 59328,
            "byteLength": 19776,
            "target": 34962
        },
        {
            "buffer": 0,
            "byteOffset": 79104,
            "byteLength": 9888,
            "target": 34963
        }
    ],
    "images": [
        {
            "uri": "G:\\Blender 3D\\Cenas\\Banana\\Banana Texture.png"
        }
    ],
    "materials": [
        {
            "name": "Banana Material",
            "pbrMetallicRoughness": {
                "baseColorTexture": {
                    "index": 0
                },
                "baseColorFactor": [
                    0.800000011920929,
                    0.800000011920929,
                    0.800000011920929,
                    1.0
                ],
                "metallicFactor": 0.0,
                "roughnessFactor": 0.5
            }
        }
    ],
    "meshes": [
        {
            "name": "Cube.001",
            "primitives": [
                {
                    "extensions": {
                        "FB_ngon_encoding": {}
                    },
                    "mode": 4,
                    "material": 0,
                    "indices": 3,
                    "attributes": {
                        "POSITION": 0,
                        "NORMAL": 1,
                        "TEXCOORD_0": 2
                    }
                }
            ]
        }
    ],
    "nodes": [
        {
            "name": "RootNode",
            "children": [
                1
            ]
        },
        {
            "name": "Cube",
            "matrix": [
                24.17810821533203,
                0.0,
                0.0,
                0.0,
                0.0,
                -12.557660102844239,
                -108.44752502441406,
                0.0,
                0.0,
                24.017627716064454,
                -2.781116485595703,
                0.0,
                -0.02059124782681465,
                45.4293327331543,
                -33.2292594909668,
                1.0
            ],
            "mesh": 0,
            "extras": {
                "UserProperties": "",
                "IsNull": false,
                "DefaultAttributeIndex": 0,
                "InheritType": 1
            }
        }
    ],
    "samplers": [
        {}
    ],
    "scenes": [
        {
            "nodes": [
                0
            ]
        }
    ],
    "textures": [
        {
            "source": 0,
            "sampler": 0
        }
    ],
    "scene": 0
}